<svg xmlns="http://www.w3.org/2000/svg" version="1.1" xmlns:xlink="http://www.w3.org/1999/xlink" xmlns:svgjs="http://svgjs.dev/svgjs" width="1500" height="1500" viewBox="0 0 1500 1500"><g transform="matrix(1,0,0,1,-0.323615160350073,-0.3236151603499593)"><svg viewBox="0 0 343 343" data-background-color="#ffffff" preserveAspectRatio="xMidYMid meet" height="1500" width="1500" xmlns="http://www.w3.org/2000/svg" xmlns:xlink="http://www.w3.org/1999/xlink"><g id="tight-bounds" transform="matrix(1,0,0,1,0.0740000000000407,0.07400000000001228)"><svg viewBox="0 0 342.85155851775386 342.85155851775386" height="342.85155851775386" width="342.85155851775386"><g><svg></svg></g><g><svg viewBox="0 0 342.85155851775386 342.85155851775386" height="342.85155851775386" width="342.85155851775386"><g><path d="M0 171.426c0-94.676 76.75-171.426 171.426-171.426 94.676 0 171.426 76.75 171.426 171.426 0 94.676-76.75 171.426-171.426 171.426-94.676 0-171.426-76.75-171.426-171.426zM171.426 330.603c87.911 0 159.178-71.266 159.177-159.177 0-87.911-71.266-159.178-159.177-159.178-87.911 0-159.178 71.266-159.178 159.178 0 87.911 71.266 159.178 159.178 159.177z" data-fill-palette-color="tertiary" fill="#ff5858" stroke="transparent"></path><ellipse rx="164.56874808852186" ry="164.56874808852186" cx="171.42577925887693" cy="171.42577925887693" fill="#ff5858" stroke="transparent" stroke-width="0" fill-opacity="1" data-fill-palette-color="tertiary"></ellipse></g><g transform="matrix(1,0,0,1,64.84655864529837,77.12893265749292)"><svg viewBox="0 0 213.1584412271571 188.593693202768" height="188.593693202768" width="213.1584412271571"><g><svg viewBox="0 0 213.1584412271571 188.593693202768" height="188.593693202768" width="213.1584412271571"><g><svg viewBox="0 0 213.1584412271571 188.593693202768" height="188.593693202768" width="213.1584412271571"><g><svg viewBox="0 0 213.1584412271571 188.593693202768" height="188.593693202768" width="213.1584412271571"><g id="textblocktransform"><svg viewBox="0 0 213.1584412271571 188.593693202768" height="188.593693202768" width="213.1584412271571" id="textblock"><g><svg viewBox="0 0 213.1584412271571 135.81776786155143" height="135.81776786155143" width="213.1584412271571"><g transform="matrix(1,0,0,1,0,0)"><svg width="213.1584412271571" viewBox="1.5 -35.5 56.5 36" height="135.81776786155143" data-palette-color="#ffffff"><path d="M10.9 0.5L10.9 0.5Q8.4 0.5 6.6-0.25 4.8-1 3.68-2.85 2.55-4.7 2.02-8.08 1.5-11.45 1.5-16.7L1.5-16.7Q1.5-22.6 2.25-26.28 3-29.95 4.4-31.98 5.8-34 7.78-34.75 9.75-35.5 12.25-35.5L12.25-35.5Q14.7-35.5 16.13-34.73 17.55-33.95 17.55-32.95L17.55-32.95Q17.55-32.25 17.4-31.58 17.25-30.9 17.05-30.3L17.05-30.3Q16.4-30.85 15.35-31.18 14.3-31.5 13.05-31.5L13.05-31.5Q11.15-31.5 9.78-30.8 8.4-30.1 7.53-28.45 6.65-26.8 6.25-24 5.85-21.2 5.85-17L5.85-17Q5.85-12.55 6.18-9.85 6.5-7.15 7.18-5.78 7.85-4.4 8.83-3.95 9.8-3.5 11-3.5L11-3.5Q11.9-3.5 12.5-3.7 13.1-3.9 13.48-4.2 13.85-4.5 13.95-4.7L13.95-4.7 13.95-17.15 10.25-17.15 10.25-19.7Q10.25-20.55 11.2-20.55L11.2-20.55 17.75-20.55 17.75-1.75Q17.15-1.25 16.23-0.73 15.3-0.2 13.98 0.15 12.65 0.5 10.9 0.5ZM27.25-14.2L22.8-14.2Q22.05-14.2 22-14.45 21.95-14.7 21.95-15.3L21.95-15.3 21.95-34.05Q21.95-34.2 21.97-34.6 22-35 22.55-35L22.55-35 27.2-35Q30.35-35 32.4-33.98 34.45-32.95 35.42-30.78 36.4-28.6 36.4-25.1L36.4-25.1Q36.4-22 35.67-19.93 34.95-17.85 33.67-16.6 32.4-15.35 30.75-14.78 29.1-14.2 27.25-14.2L27.25-14.2ZM21.4 0L21.4 0 21.4-34.2Q21.4-34.2 21.52-34.6 21.65-35 22.25-35L22.25-35 24.65-35Q25.25-35 25.35-34.6 25.45-34.2 25.45-34.2L25.45-34.2 25.45-0.8Q25.45-0.4 25.27-0.25 25.1-0.1 24.25-0.05 23.4 0 21.4 0ZM34.7 0.1L34.7 0.1Q34.25 0.1 33.62 0.08 33 0.05 32.3 0L32.3 0Q32.05-4.3 31.27-7.23 30.5-10.15 29.62-11.88 28.75-13.6 28.1-14.35 27.45-15.1 27.45-15.1L27.45-15.1Q27.45-15.1 27.35-15.4 27.25-15.7 27.75-16L27.75-16 29.95-17.2Q30.55-17.2 30.8-16.75L30.8-16.75Q30.8-16.75 31.6-15.85 32.4-14.95 33.5-13.03 34.6-11.1 35.55-8.1 36.5-5.1 36.75-0.9L36.75-0.9Q36.75-0.35 36.45-0.13 36.15 0.1 34.7 0.1ZM25.35-31.45L25.35-17.95 27.65-17.95Q29.05-17.95 29.97-18.68 30.9-19.4 31.4-21.03 31.9-22.65 31.9-25.3L31.9-25.3Q31.9-27.2 31.55-28.6 31.2-30 30.32-30.73 29.45-31.45 27.95-31.45L27.95-31.45 25.35-31.45ZM46.9 0.35L46.9 0.35Q45.95 0.35 45.37-0.48 44.8-1.3 44.5-2.55L44.5-2.55Q44-4.6 43.3-7.68 42.59-10.75 41.82-14.28 41.05-17.8 40.27-21.25 39.49-24.7 38.9-27.55 38.3-30.4 37.92-32.1 37.55-33.8 37.55-33.8L37.55-33.8Q37.4-34.45 37.49-34.73 37.59-35 38.45-35L38.45-35 41.74-35 45.9-15.65Q46.34-13.45 46.7-11.23 47.05-9 47.34-7.03 47.65-5.05 47.9-3.45L47.9-3.45Q48.09-5.05 48.37-7.03 48.65-9 49-11.23 49.34-13.45 49.7-15.65L49.7-15.65 53.45-33.8Q53.55-34.4 53.72-34.7 53.89-35 54.5-35L54.5-35 58-35 50.3 0.15Q49.5 0.25 48.77 0.3 48.05 0.35 46.9 0.35Z" opacity="1" transform="matrix(1,0,0,1,0,0)" fill="#ffffff" class="wordmark-text-0" data-fill-palette-color="quaternary" id="text-0"></path></svg></g></svg></g><g transform="matrix(1,0,0,1,0,167.88108322723505)"><svg viewBox="0 0 213.1584412271571 20.712609975532953" height="20.712609975532953" width="213.1584412271571"><g transform="matrix(1,0,0,1,0,0)"><svg width="213.1584412271571" viewBox="2.73 -37.55 441.7 42.919999999999995" height="20.712609975532953" data-palette-color="#ffffff"><path d="M40.92-0.24L40.92-0.24Q38.57 0.29 36.25 0.76 33.94 1.22 31.54 1.61L31.54 1.61Q28.61-2.83 25.76-7.15 22.9-11.47 19.82-15.77L19.82-15.77 14.6-10.69 14.11 0.15Q12.99 0.1 11.89 0.07 10.79 0.05 9.72 0.05L9.72 0.05Q8.69 0.05 7.71 0.1 6.74 0.15 5.76 0.29L5.76 0.29Q5.18-4.2 4.66-8.67 4.15-13.13 3.76-17.68L3.76-17.68Q3.37-22.22 3.15-26.73 2.93-31.25 2.73-35.79L2.73-35.79Q6.4-35.69 9.99-35.67 13.57-35.64 17.24-35.55L17.24-35.55 16.94-24.22Q19.58-26.95 21.92-29.79 24.27-32.62 26.76-35.55L26.76-35.55Q29.1-35.69 31.49-35.86 33.89-36.04 36.23-36.23L36.23-36.23 36.04-32.62 25.68-21.83Q29.39-16.31 33.18-10.99 36.96-5.66 40.92-0.24ZM73.63-18.12L73.63-18.12Q67.24-17.77 60.89-17.55 54.54-17.33 48.14-17.09L48.14-17.09Q48.1-16.89 48.1-16.7 48.1-16.5 48.1-16.31L48.1-16.31Q48.1-14.65 48.85-13.77 49.61-12.89 50.73-12.52 51.86-12.16 53.22-12.11 54.59-12.06 55.76-12.06L55.76-12.06Q59.03-12.06 62.3-12.28 65.58-12.5 68.9-12.74L68.9-12.74 69.29-4.98Q66.06-4.83 62.87-4.74 59.67-4.64 56.45-4.64L56.45-4.64Q55.76-4.64 53.93-4.66 52.1-4.69 50.02-4.81 47.95-4.93 46.14-5.13 44.34-5.32 43.75-5.66L43.75-5.66Q42.24-6.54 41.38-7.91 40.53-9.28 40.06-10.89 39.6-12.5 39.43-14.18 39.26-15.87 39.21-17.43L39.21-17.43Q39.16-17.68 39.18-17.94 39.21-18.21 39.21-18.46L39.21-18.46Q39.21-21.04 39.77-23.27 40.33-25.49 41.85-27.59L41.85-27.59Q42.87-29.05 44.87-30.03 46.88-31.01 49.22-31.57 51.56-32.13 53.91-32.35 56.25-32.57 57.96-32.57L57.96-32.57Q59.47-32.57 61.67-32.3 63.87-32.03 66.04-31.4 68.21-30.76 69.97-29.76 71.73-28.76 72.36-27.29L72.36-27.29Q72.46-27 72.58-26.29 72.71-25.59 72.85-24.68 73-23.78 73.12-22.75 73.24-21.73 73.34-20.8 73.44-19.87 73.51-19.14 73.58-18.41 73.63-18.12ZM50.68-21.14L66.99-21.68Q66.7-23.83 65.89-25.07 65.09-26.32 63.89-26.93 62.7-27.54 61.16-27.71 59.62-27.88 57.86-27.88L57.86-27.88Q57.28-27.88 56.4-27.86 55.52-27.83 54.64-27.71 53.76-27.59 52.98-27.34 52.2-27.1 51.76-26.66L51.76-26.66Q51.42-26.37 51.2-25.85 50.98-25.34 50.83-24.76 50.68-24.17 50.61-23.61 50.54-23.05 50.54-22.66L50.54-22.66Q50.54-21.88 50.68-21.14L50.68-21.14ZM110.6-18.12L110.6-18.12Q104.2-17.77 97.85-17.55 91.5-17.33 85.11-17.09L85.11-17.09Q85.06-16.89 85.06-16.7 85.06-16.5 85.06-16.31L85.06-16.31Q85.06-14.65 85.82-13.77 86.57-12.89 87.7-12.52 88.82-12.16 90.19-12.11 91.55-12.06 92.72-12.06L92.72-12.06Q96-12.06 99.27-12.28 102.54-12.5 105.86-12.74L105.86-12.74 106.25-4.98Q103.03-4.83 99.83-4.74 96.63-4.64 93.41-4.64L93.41-4.64Q92.72-4.64 90.89-4.66 89.06-4.69 86.99-4.81 84.91-4.93 83.11-5.13 81.3-5.32 80.71-5.66L80.71-5.66Q79.2-6.54 78.34-7.91 77.49-9.28 77.03-10.89 76.56-12.5 76.39-14.18 76.22-15.87 76.17-17.43L76.17-17.43Q76.12-17.68 76.15-17.94 76.17-18.21 76.17-18.46L76.17-18.46Q76.17-21.04 76.73-23.27 77.29-25.49 78.81-27.59L78.81-27.59Q79.83-29.05 81.84-30.03 83.84-31.01 86.18-31.57 88.53-32.13 90.87-32.35 93.21-32.57 94.92-32.57L94.92-32.57Q96.44-32.57 98.63-32.3 100.83-32.03 103-31.4 105.18-30.76 106.93-29.76 108.69-28.76 109.33-27.29L109.33-27.29Q109.42-27 109.55-26.29 109.67-25.59 109.81-24.68 109.96-23.78 110.08-22.75 110.21-21.73 110.3-20.8 110.4-19.87 110.47-19.14 110.55-18.41 110.6-18.12ZM87.65-21.14L103.96-21.68Q103.66-23.83 102.86-25.07 102.05-26.32 100.85-26.93 99.66-27.54 98.12-27.71 96.58-27.88 94.82-27.88L94.82-27.88Q94.24-27.88 93.36-27.86 92.48-27.83 91.6-27.71 90.72-27.59 89.94-27.34 89.16-27.1 88.72-26.66L88.72-26.66Q88.38-26.37 88.16-25.85 87.94-25.34 87.79-24.76 87.65-24.17 87.57-23.61 87.5-23.05 87.5-22.66L87.5-22.66Q87.5-21.88 87.65-21.14L87.65-21.14ZM148.93-16.65L148.93-16.65Q148.93-15.97 148.9-15.16 148.88-14.36 148.75-13.53 148.63-12.7 148.41-11.94 148.19-11.18 147.8-10.6L147.8-10.6Q146.97-9.38 146.24-8.52 145.51-7.67 144.65-7.1 143.8-6.54 142.72-6.2 141.65-5.86 140.19-5.66L140.19-5.66Q137.99-5.32 135.84-5.05 133.69-4.79 131.49-4.79L131.49-4.79Q130.52-4.79 129.49-4.88 128.47-4.98 127.59-5.52L127.59-5.52Q127.1-5.76 126.54-6.18 125.98-6.59 125.44-7.06 124.9-7.52 124.39-7.98 123.88-8.45 123.49-8.79L123.49-8.79 123.19 3.47Q121.83 3.56 120.46 3.54 119.09 3.52 117.68 3.52L117.68 3.52Q116.85 3.52 116.09 3.54 115.33 3.56 114.5 3.61L114.5 3.61Q114.7-0.59 114.87-4.76 115.04-8.94 115.04-13.09L115.04-13.09 115.04-13.67Q115.04-18.31 114.79-22.9 114.55-27.49 114.36-32.13L114.36-32.13Q116.8-32.32 119.19-32.47 121.58-32.62 124.02-32.81L124.02-32.81 124.37-30.22Q127.73-30.62 131.13-30.88 134.52-31.15 137.94-31.15L137.94-31.15Q138.38-31.15 138.89-31.18 139.4-31.2 139.84-31.1L139.84-31.1Q141.02-30.86 142.24-30.49 143.46-30.13 144.53-29.54 145.61-28.96 146.44-28.05 147.27-27.15 147.71-25.88L147.71-25.88Q148-24.9 148.24-23.73 148.49-22.56 148.63-21.31 148.78-20.07 148.85-18.87 148.93-17.68 148.93-16.65ZM139.31-17.53L139.31-17.53Q139.31-18.12 139.21-18.8 139.11-19.48 138.72-19.92L138.72-19.92Q137.74-21.04 136.28-21.66 134.81-22.27 133.4-22.27L133.4-22.27Q132.23-22.27 130.86-22.05 129.49-21.83 128.13-21.46 126.76-21.09 125.44-20.63 124.12-20.17 123.05-19.73L123.05-19.73 123.49-13.18Q125.29-12.65 127.37-12.21 129.44-11.77 131.3-11.77L131.3-11.77Q131.79-11.77 132.81-11.74 133.84-11.72 134.94-11.79 136.04-11.87 136.99-12.01 137.94-12.16 138.23-12.55L138.23-12.55Q138.48-12.84 138.67-13.5 138.87-14.16 139.01-14.92 139.16-15.67 139.23-16.38 139.31-17.09 139.31-17.53ZM201.81-36.23L202.34-29.74Q197.56-29.49 192.85-29.22 188.13-28.96 183.35-28.56L183.35-28.56 183.25-24.71 195.85-25.44Q196.09-23.78 196.22-22.17 196.34-20.56 196.34-18.9L196.34-18.9Q196.34-18.21 196.31-17.48 196.29-16.75 196.29-16.06L196.29-16.06 184.57-13.96 185.3-7.91Q189.01-8.15 192.7-8.62 196.39-9.08 200.15-9.42L200.15-9.42Q200.49-6.98 200.83-4.52 201.17-2.05 201.81 0.29L201.81 0.29Q194.87 0.24 188.04 0.32 181.2 0.39 174.27 0.39L174.27 0.39Q174.41-5.32 174.61-10.99 174.8-16.65 174.8-22.41L174.8-22.41 174.8-23.34Q174.8-26.66 174.71-29.96 174.61-33.25 174.51-36.62L174.51-36.62Q178.37-36.57 182.2-36.6 186.04-36.62 189.94-36.62L189.94-36.62Q192.92-36.62 195.87-36.5 198.83-36.38 201.81-36.23L201.81-36.23ZM223.88-32.08L236.28-32.42Q233.2-29.15 230.32-25.88L230.32-25.88Q228.76-24.17 227.12-22.53 225.49-20.9 223.88-19.34L223.88-19.34Q226.61-15.53 229.25-11.72 231.88-7.91 234.72-4.2L234.72-4.2 225.24-3.96Q223.24-6.45 221.39-8.89 219.53-11.33 217.33-13.53L217.33-13.53 208.11-4.74Q206.2-4.83 204.27-4.96 202.34-5.08 200.34-5.08L200.34-5.08Q200.34-5.13 200.78-5.62 201.22-6.1 201.88-6.81 202.54-7.52 203.34-8.37 204.15-9.23 204.88-9.99 205.62-10.74 206.18-11.33 206.74-11.91 206.93-12.11L206.93-12.11Q208.4-13.72 209.86-15.41 211.33-17.09 212.79-18.75L212.79-18.75 201.37-31.88 212.89-32.18 217.77-24.22Q218.8-25.34 219.56-26.25 220.31-27.15 221-28.03 221.68-28.91 222.36-29.86 223.05-30.81 223.88-32.08L223.88-32.08ZM271.34-16.65L271.34-16.65Q271.34-15.97 271.31-15.16 271.29-14.36 271.17-13.53 271.04-12.7 270.83-11.94 270.61-11.18 270.21-10.6L270.21-10.6Q269.38-9.38 268.65-8.52 267.92-7.67 267.07-7.1 266.21-6.54 265.14-6.2 264.06-5.86 262.6-5.66L262.6-5.66Q260.4-5.32 258.25-5.05 256.1-4.79 253.91-4.79L253.91-4.79Q252.93-4.79 251.9-4.88 250.88-4.98 250-5.52L250-5.52Q249.51-5.76 248.95-6.18 248.39-6.59 247.85-7.06 247.31-7.52 246.8-7.98 246.29-8.45 245.9-8.79L245.9-8.79 245.61 3.47Q244.24 3.56 242.87 3.54 241.5 3.52 240.09 3.52L240.09 3.52Q239.26 3.52 238.5 3.54 237.74 3.56 236.91 3.61L236.91 3.61Q237.11-0.59 237.28-4.76 237.45-8.94 237.45-13.09L237.45-13.09 237.45-13.67Q237.45-18.31 237.21-22.9 236.96-27.49 236.77-32.13L236.77-32.13Q239.21-32.32 241.6-32.47 243.99-32.62 246.44-32.81L246.44-32.81 246.78-30.22Q250.15-30.62 253.54-30.88 256.93-31.15 260.35-31.15L260.35-31.15Q260.79-31.15 261.3-31.18 261.82-31.2 262.26-31.1L262.26-31.1Q263.43-30.86 264.65-30.49 265.87-30.13 266.94-29.54 268.02-28.96 268.85-28.05 269.68-27.15 270.12-25.88L270.12-25.88Q270.41-24.9 270.65-23.73 270.9-22.56 271.04-21.31 271.19-20.07 271.26-18.87 271.34-17.68 271.34-16.65ZM261.72-17.53L261.72-17.53Q261.72-18.12 261.62-18.8 261.52-19.48 261.13-19.92L261.13-19.92Q260.16-21.04 258.69-21.66 257.23-22.27 255.81-22.27L255.81-22.27Q254.64-22.27 253.27-22.05 251.9-21.83 250.54-21.46 249.17-21.09 247.85-20.63 246.53-20.17 245.46-19.73L245.46-19.73 245.9-13.18Q247.71-12.65 249.78-12.21 251.86-11.77 253.71-11.77L253.71-11.77Q254.2-11.77 255.22-11.74 256.25-11.72 257.35-11.79 258.45-11.87 259.4-12.01 260.35-12.16 260.64-12.55L260.64-12.55Q260.89-12.84 261.08-13.5 261.28-14.16 261.43-14.92 261.57-15.67 261.65-16.38 261.72-17.09 261.72-17.53ZM275.59-36.52L286.47-37.55Q286.08-32.81 285.72-28.13 285.35-23.44 285.11-18.7L285.11-18.7Q284.86-14.4 284.59-10.18 284.33-5.96 284.08-1.66L284.08-1.66 276.61-1.27Q276.61-5.71 276.64-10.08 276.66-14.45 276.56-18.9L276.56-18.9Q276.46-23.34 276.17-27.71 275.88-32.08 275.59-36.52L275.59-36.52ZM326.76-19.34L326.76-19.34Q326.76-18.95 326.76-18.58 326.76-18.21 326.71-17.82L326.71-17.82Q326.66-17.14 326.46-15.58 326.27-14.01 325.93-12.33 325.59-10.64 325.1-9.23 324.61-7.81 324.02-7.42L324.02-7.42Q323.73-7.23 322.05-7.08 320.36-6.93 317.94-6.79 315.53-6.64 312.7-6.54 309.86-6.45 307.3-6.37 304.74-6.3 302.81-6.25 300.88-6.2 300.24-6.2L300.24-6.2Q299.95-6.2 299.24-6.2 298.54-6.2 297.75-6.23 296.97-6.25 296.29-6.3 295.61-6.35 295.31-6.45L295.31-6.45Q294.63-6.69 293.95-7.25 293.26-7.81 292.68-8.52 292.09-9.23 291.63-9.99 291.16-10.74 290.97-11.43L290.97-11.43Q290.82-11.96 290.72-13.06 290.63-14.16 290.58-15.36 290.53-16.55 290.5-17.68 290.48-18.8 290.48-19.38L290.48-19.38Q290.48-20.31 290.53-21.95 290.58-23.58 290.82-25.29 291.06-27 291.53-28.49 291.99-29.98 292.87-30.57L292.87-30.57Q293.26-30.81 294.34-31.01 295.41-31.2 296.88-31.35 298.34-31.49 300-31.57 301.66-31.64 303.25-31.67 304.83-31.69 306.2-31.69 307.57-31.69 308.4-31.64L308.4-31.64Q309.13-31.59 310.5-31.57 311.87-31.54 313.55-31.49 315.23-31.45 317.04-31.32 318.85-31.2 320.41-31.01 321.97-30.81 323.17-30.49 324.37-30.18 324.76-29.74L324.76-29.74Q325.39-29.05 325.78-27.69 326.17-26.32 326.39-24.78 326.61-23.24 326.68-21.75 326.76-20.26 326.76-19.34ZM316.41-18.31L316.41-18.31Q316.41-18.9 316.36-19.68 316.31-20.46 316.21-21.26 316.11-22.07 315.92-22.83 315.72-23.58 315.43-24.07L315.43-24.07Q315.04-24.71 313.92-25.05 312.79-25.39 311.45-25.56 310.11-25.73 308.81-25.78 307.52-25.83 306.88-25.83L306.88-25.83Q306.54-25.83 305.66-25.81 304.79-25.78 303.83-25.73 302.88-25.68 302.05-25.56 301.22-25.44 300.98-25.29L300.98-25.29Q300.54-25 300.29-24.39 300.05-23.78 299.93-23.05 299.8-22.31 299.78-21.61 299.76-20.9 299.76-20.46L299.76-20.46Q299.76-20.02 299.83-18.87 299.9-17.72 300.02-16.43 300.15-15.14 300.34-14.06 300.54-12.99 300.83-12.7L300.83-12.7Q301.17-12.3 302.12-12.06 303.08-11.82 304.17-11.65 305.27-11.47 306.3-11.4 307.32-11.33 307.76-11.33L307.76-11.33Q308.54-11.33 309.62-11.38 310.69-11.43 311.79-11.62 312.89-11.82 313.87-12.16 314.84-12.5 315.43-13.09L315.43-13.09Q315.77-13.43 315.97-14.11 316.16-14.79 316.26-15.58 316.36-16.36 316.38-17.11 316.41-17.87 316.41-18.31ZM360.06-20.61L360.06-20.61 360.06-19.48 350.63-19.04Q350.78-19.68 350.78-20.51L350.78-20.51Q350.78-21.73 350.44-22.09 350.1-22.46 348.93-22.46L348.93-22.46Q347.27-22.46 345.26-21.88 343.26-21.29 341.75-20.75L341.75-20.75Q341.5-18.6 341.36-16.46 341.21-14.31 341.21-12.16L341.21-12.16Q341.21-9.77 341.24-7.4 341.26-5.03 341.31-2.64L341.31-2.64 332.91-2.1Q332.67-5.22 332.42-8.33 332.18-11.43 331.98-14.55L331.98-14.55Q331.74-18.7 331.35-22.83 330.96-26.95 330.57-31.15L330.57-31.15Q333.35-30.96 336.11-30.59 338.87-30.22 341.65-29.69L341.65-29.69 341.41-25.59Q342.87-26.76 344.21-27.61 345.56-28.47 346.95-29.05 348.34-29.64 349.9-29.91 351.46-30.18 353.37-30.18L353.37-30.18Q354.64-30.18 356.01-29.91 357.37-29.64 358.35-28.66L358.35-28.66Q358.84-28.13 359.18-27.05 359.52-25.98 359.72-24.78 359.91-23.58 359.99-22.44 360.06-21.29 360.06-20.61ZM371.09-32.67L371.09-32.67Q371.09-31.69 370.68-30.83 370.26-29.98 369.56-29.35 368.85-28.71 367.97-28.34 367.09-27.98 366.21-27.98L366.21-27.98Q365.23-27.98 364.38-28.42 363.53-28.86 362.89-29.54 362.26-30.22 361.91-31.13 361.57-32.03 361.57-32.96L361.57-32.96Q361.57-33.89 361.94-34.69 362.3-35.5 362.92-36.08 363.53-36.67 364.33-37.01 365.14-37.35 366.06-37.35L366.06-37.35Q366.99-37.35 367.9-36.99 368.8-36.62 369.51-35.96 370.21-35.3 370.65-34.45 371.09-33.59 371.09-32.67ZM373.1-24.37L373.1-24.37Q372.85-21.78 372.71-19.24 372.56-16.7 372.41-14.16L372.41-14.16Q372.22-11.18 371.75-8.25 371.29-5.32 370.7-2.39L370.7-2.39 363.23-1.61Q363.23-3.17 363.26-4.69 363.28-6.2 363.28-7.76L363.28-7.76Q363.28-11.77 363.13-15.77 362.99-19.78 362.84-23.78L362.84-23.78Q365.43-23.88 367.94-24.07 370.46-24.27 373.1-24.37ZM407.13-14.5L407.13-14.5Q407.13-13.18 407.13-11.84 407.13-10.5 407.03-9.18L407.03-9.18 396.14-8.5Q396.34-11.04 396.46-13.53 396.58-16.02 396.58-18.6L396.58-18.6Q396.58-18.85 396.58-19.43 396.58-20.02 396.53-20.68 396.48-21.34 396.44-21.92 396.39-22.51 396.34-22.75L396.34-22.75Q396.09-23.44 395.83-23.93 395.56-24.41 395.19-24.71 394.82-25 394.29-25.12 393.75-25.24 392.97-25.24L392.97-25.24Q392.38-25.24 391.48-25.15 390.58-25.05 389.65-24.85 388.72-24.66 387.89-24.37 387.06-24.07 386.72-23.68L386.72-23.68 386.62-9.28Q386.52-9.47 386.06-9.47 385.6-9.47 385.4-9.47L385.4-9.47Q383.94-9.47 382.37-9.35 380.81-9.23 379.35-9.03L379.35-9.03Q378.71-14.79 378.22-20.51 377.73-26.22 377.1-31.98L377.1-31.98Q378.08-32.03 379.05-32.06 380.03-32.08 381.01-32.08L381.01-32.08Q382.28-32.08 383.57-32.01 384.86-31.93 386.13-31.88L386.13-31.88 386.47-28.13Q387.84-30.37 390.19-31.88 392.53-33.4 395.21-33.4L395.21-33.4Q396.58-33.4 398.05-33.25 399.51-33.11 400.85-32.67 402.2-32.23 403.39-31.45 404.59-30.66 405.42-29.44L405.42-29.44Q405.81-28.86 406.08-27.71 406.35-26.56 406.54-25.12 406.74-23.68 406.86-22.07 406.98-20.46 407.03-18.99 407.08-17.53 407.1-16.33 407.13-15.14 407.13-14.5ZM444.43-17.29L444.43-17.29Q444.43-15.23 444.41-13.21 444.38-11.18 444.38-9.13L444.38-9.13Q444.34-8.06 444.36-6.93 444.38-5.81 444.29-4.69L444.29-4.69Q444.14-3.61 443.99-2.42 443.85-1.22 443.51-0.05 443.16 1.12 442.6 2.15 442.04 3.17 441.11 3.91L441.11 3.91Q440.87 4.1 440.14 4.25 439.4 4.39 438.43 4.54 437.45 4.69 436.33 4.79 435.21 4.88 434.18 4.96 433.15 5.03 432.32 5.1 431.49 5.18 431.15 5.18L431.15 5.18Q428.08 5.27 425.07 5.32 422.07 5.37 418.99 5.37L418.99 5.37 415.87 5.37Q415.77 4.54 415.67 3.66 415.58 2.78 415.58 1.9L415.58 1.9Q415.58 0.93 415.38-0.12 415.19-1.17 414.94-2.2L414.94-2.2 418.16-2.15Q418.46-2.15 419.8-2.17 421.14-2.2 422.95-2.22 424.76-2.25 426.83-2.32 428.91-2.39 430.66-2.54 432.42-2.69 433.67-2.88 434.91-3.08 435.06-3.32L435.06-3.32Q435.45-3.96 435.55-4.76 435.64-5.57 435.64-6.3L435.64-6.3Q435.64-6.69 435.62-7.1 435.6-7.52 435.55-7.91L435.55-7.91Q432.81-7.71 430.13-7.57 427.44-7.42 424.66-7.42L424.66-7.42Q424.02-7.42 423.07-7.42 422.12-7.42 421.12-7.47 420.12-7.52 419.17-7.62 418.21-7.71 417.63-7.91L417.63-7.91Q416.65-8.2 415.65-8.57 414.65-8.94 413.77-9.47 412.89-10.01 412.23-10.77 411.57-11.52 411.33-12.6L411.33-12.6Q411.18-13.13 411.16-13.77 411.13-14.4 411.13-14.94L411.13-14.94Q411.13-16.31 411.28-18.41 411.43-20.51 411.79-22.68 412.16-24.85 412.77-26.78 413.38-28.71 414.31-29.69L414.31-29.69Q414.84-30.27 416.04-30.71 417.24-31.15 418.75-31.45 420.26-31.74 421.95-31.96 423.63-32.18 425.24-32.28 426.86-32.37 428.2-32.42 429.54-32.47 430.32-32.47L430.32-32.47Q433.06-32.47 435.79-32.32L435.79-32.32 436.13-35.45 444.34-34.23Q444.38-29.98 444.41-25.78 444.43-21.58 444.43-17.29ZM435.79-18.21L435.79-18.21Q435.79-19.78 435.74-21.26 435.69-22.75 435.6-24.32L435.6-24.32Q433.45-24.8 431.3-25.1 429.15-25.39 426.9-25.39L426.9-25.39Q426.51-25.39 425.73-25.34 424.95-25.29 424.1-25.17 423.24-25.05 422.51-24.83 421.78-24.61 421.48-24.32L421.48-24.32Q421.04-23.83 420.95-23.19 420.85-22.56 420.85-21.92L420.85-21.92Q420.85-21.39 420.97-20.29 421.09-19.19 421.29-18.02 421.48-16.85 421.78-15.82 422.07-14.79 422.36-14.4L422.36-14.4Q422.66-14.01 423.1-13.82 423.54-13.62 424.05-13.55 424.56-13.48 425.07-13.45 425.59-13.43 425.98-13.43L425.98-13.43Q426.95-13.43 428.34-13.5 429.74-13.57 431.13-13.77 432.52-13.96 433.74-14.33 434.96-14.7 435.6-15.33L435.6-15.33Q435.69-15.38 435.74-15.82 435.79-16.26 435.79-16.75 435.79-17.24 435.79-17.68 435.79-18.12 435.79-18.21Z" opacity="1" transform="matrix(1,0,0,1,0,0)" fill="#ffffff" class="slogan-text-1" data-fill-palette-color="quaternary" id="text-1"></path></svg></g></svg></g></svg></g></svg></g><g></g></svg></g></svg></g></svg></g></svg></g><defs></defs></svg><rect width="342.85155851775386" height="342.85155851775386" fill="none" stroke="none" visibility="hidden"></rect></g></svg></g></svg>